# xmcd
#
# Track frame offsets: 
#        150
#        14914
#        35100
#        60764
#        86049
#        105877
#        135829
#        156168
#        182603
#        212749
#        239290
#        259533
#        280001
#
# Disc length: 4004 seconds
#
# Revision: 0
# Processed by: cddbd v1.5.2PL0 Copyright (c) Steve Scherf et al.
# Submitted via: ExactAudioCopy v0.95a5
#
DISCID=a40fa20d
DTITLE=Diverse - White Boys Blues - Vol 1
DYEAR=2003
DGENRE=Blues
TTITLE0=Bobby Womack - Its All Over Now
TTITLE1=Larry McCray - Miss You
TTITLE2=Syl Johnson - Me And Bobby McGee
TTITLE3=Isaac Hayes - Lady Lady Lay
TTITLE4=Otis Clay - Wonderful Tonight
TTITLE5=Etta James - Ball And Chain
TTITLE6=Magic Slim/James Cotton - When The Levee Breaks (Part 2)
TTITLE7=Clarence "Gatemouth" Brown - Rock'n Roll
TTITLE8=Otis Rush - Old Love
TTITLE9=Junior Wells - (I Can't Get No) Satisfaction
TTITLE10=Taj Mahal - It Takes A Lot To Laugh, It Takes A Train To Cry
TTITLE11=Joe Louis Walker - Heart Of Stone
TTITLE12=Ann Peebles - Tears In Heaven
EXTD=
EXTT0=
EXTT1=
EXTT2=
EXTT3=
EXTT4=
EXTT5=
EXTT6=
EXTT7=
EXTT8=
EXTT9=
EXTT10=
EXTT11=
EXTT12=
PLAYORDER=
